<svg width="16" height="16" viewBox="0 0 16 16" fill="none" xmlns="http://www.w3.org/2000/svg">
<g id="Button Icon">
<path id="Vector" d="M7.99996 4.00008C10.5266 4.00008 12.78 5.42008 13.88 7.66675C12.78 9.91341 10.5266 11.3334 7.99996 11.3334C5.47329 11.3334 3.21996 9.91341 2.11996 7.66675C3.21996 5.42008 5.47329 4.00008 7.99996 4.00008ZM7.99996 2.66675C4.66663 2.66675 1.81996 4.74008 0.666626 7.66675C1.81996 10.5934 4.66663 12.6667 7.99996 12.6667C11.3333 12.6667 14.18 10.5934 15.3333 7.66675C14.18 4.74008 11.3333 2.66675 7.99996 2.66675ZM7.99996 6.00008C8.91996 6.00008 9.66663 6.74675 9.66663 7.66675C9.66663 8.58675 8.91996 9.33342 7.99996 9.33342C7.07996 9.33342 6.33329 8.58675 6.33329 7.66675C6.33329 6.74675 7.07996 6.00008 7.99996 6.00008ZM7.99996 4.66675C6.34663 4.66675 4.99996 6.01341 4.99996 7.66675C4.99996 9.32008 6.34663 10.6667 7.99996 10.6667C9.65329 10.6667 11 9.32008 11 7.66675C11 6.01341 9.65329 4.66675 7.99996 4.66675Z" fill="#0D1A26"/>
</g>
</svg>
