<svg width="32" height="32" viewBox="0 0 32 32" fill="none" xmlns="http://www.w3.org/2000/svg">
<path fill-rule="evenodd" clip-rule="evenodd" d="M18.6667 20.9759V21.3359H13.3333V20.9625C13.3333 18.8567 12.5869 18.0748 11.3531 16.7825L11.3493 16.7785L11.1613 16.5812C9.98133 15.3519 9.33333 13.7252 9.33333 12.0025C9.33333 9.98119 10.2307 8.09186 11.7947 6.81986C13.3587 5.54786 15.416 5.06253 17.4373 5.48253C20.004 6.01186 22.0573 8.11319 22.544 10.7105C22.9213 12.7545 22.3733 14.8172 21.044 16.3652C20.8913 16.5407 20.7445 16.7029 20.6053 16.8568L20.6052 16.8569L20.464 17.0132L20.4637 17.0135C19.4199 18.1573 18.6667 18.9827 18.6667 20.9759ZM12 22.6692H20V20.9759C20 19.5001 20.4839 18.9693 21.4476 17.9123L21.448 17.9119L21.4989 17.856L21.499 17.8558C21.6723 17.6654 21.8566 17.4629 22.052 17.2372C23.6493 15.3799 24.3067 12.9119 23.856 10.4665C23.268 7.34253 20.7987 4.81453 17.708 4.17586C15.2947 3.67319 12.8293 4.25986 10.9533 5.78519C9.07733 7.31186 8 9.57853 8 12.0025C8 14.0705 8.78133 16.0252 10.196 17.5025L10.3853 17.6985L10.3875 17.7008C11.5605 18.9298 12 19.3902 12 20.9625V22.6692ZM10.6667 12.0025H12C12 9.79719 13.7947 8.00253 16 8.00253V6.66919C13.0587 6.66919 10.6667 9.06119 10.6667 12.0025ZM20 25.3359V24.0025H12V25.3359H20ZM20 26.6692V28.0025H12V26.6692H20Z" fill="black"/>
</svg>
